# xmcd
#
# Track frame offsets: 
#        150
#        26540
#        48917
#        89265
#        114352
#        144212
#
# Disc length: 2301 seconds
#
# Revision: 1
# Processed by: cddbd v1.5.2PL0 Copyright (c) Steve Scherf et al.
# Submitted via: ExactAudioCopy v0.95b4
#
DISCID=3f08fb06
DTITLE=Carmell Jones - Jay Hawk Talk
DYEAR=1965
DGENRE=Jazz
TTITLE0=Jay Hawk Talk
TTITLE1=Willow Weep For Me
TTITLE2=What Is This Thing Called Love?
TTITLE3=Just In Time
TTITLE4=Dance Of The Night Child
TTITLE5=Beepdurple
EXTD=YEAR: 1965
EXTT0=
EXTT1=
EXTT2=
EXTT3=
EXTT4=
EXTT5=
PLAYORDER=
